<?xml version="1.0" standalone="no"?>
<!DOCTYPE svg PUBLIC "-//W3C//DTD SVG 20010904//EN"
 "http://www.w3.org/TR/2001/REC-SVG-20010904/DTD/svg10.dtd">
<svg version="1.0" xmlns="http://www.w3.org/2000/svg"
 width="2500.000000pt" height="2500.000000pt" viewBox="0 0 2500.000000 2500.000000"
 preserveAspectRatio="xMidYMid meet">

<g transform="translate(0.000000,2500.000000) scale(0.100000,-0.100000)"
fill="#000000" stroke="none">
<path d="M6180 13539 c-397 -31 -728 -255 -891 -603 -76 -164 -103 -325 -89
-546 9 -138 36 -241 95 -366 109 -233 265 -389 500 -500 107 -51 262 -94 339
-94 28 0 79 -5 114 -10 90 -13 12526 -14 12660 -1 310 30 595 195 762 442 57
82 123 226 152 324 21 72 23 100 23 290 0 240 -10 294 -89 461 -111 234 -266
389 -499 499 -116 55 -209 80 -369 100 -112 13 -812 15 -6365 14 -3431 -1
-6285 -6 -6343 -10z"/>
</g>
</svg>
